<svg xmlns="http://www.w3.org/2000/svg"  viewBox="0 0 80 80" width="80px" height="80px"><path fill="#b0c1d4" d="M6,77.5c-1.93,0-3.5-1.57-3.5-3.5V62l2.508-46.19c0.101-1.856,1.636-3.31,3.495-3.31h62.994 c1.859,0,3.395,1.454,3.495,3.311l2.509,46.217L77.5,74c0,1.93-1.57,3.5-3.5,3.5H6z"/><path fill="#66798f" d="M71.497,13c1.593,0,2.909,1.246,2.996,2.837L77,62.027V74c0,1.654-1.346,3-3,3H6 c-1.654,0-3-1.346-3-3V62.027l2.507-46.19C5.594,14.246,6.91,13,8.503,13H71.497 M71.497,12H8.503 c-2.125,0-3.879,1.661-3.994,3.783L2,62v12c0,2.209,1.791,4,4,4h68c2.209,0,4-1.791,4-4V62l-2.509-46.217 C75.376,13.661,73.622,12,71.497,12L71.497,12z"/><path fill="#d6e3ed" d="M4,62l2.506-46.108C6.564,14.831,7.441,14,8.503,14h62.994c1.062,0,1.94,0.831,1.997,1.892L76,62H4z"/><path fill="#b0c1d4" d="M54.5 18.5H65.5V27.5H54.5z"/><path fill="#66798f" d="M65,19v8H55v-8H65 M66,18H54v10h12V18L66,18z"/><path fill="#bae0bd" d="M46,21.5c-1.93,0-3.5-1.57-3.5-3.5V6c0-1.93,1.57-3.5,3.5-3.5h28c1.93,0,3.5,1.57,3.5,3.5v12 c0,1.93-1.57,3.5-3.5,3.5H46z"/><path fill="#5e9c76" d="M74,3c1.654,0,3,1.346,3,3v12c0,1.654-1.346,3-3,3H46c-1.654,0-3-1.346-3-3V6c0-1.654,1.346-3,3-3 H74 M74,2H46c-2.209,0-4,1.791-4,4v12c0,2.209,1.791,4,4,4h28c2.209,0,4-1.791,4-4V6C78,3.791,76.209,2,74,2L74,2z"/><path fill="#b0c1d4" d="M55 22H65V28H55z"/><path fill="#fff" d="M12 40H18V46H12zM24 40H30V46H24zM36 40H42V46H36zM48 40H54V46H48zM12 50H18V56H12zM24 50H30V56H24zM36 50H42V56H36zM48 50H54V56H48z"/><path fill="#8bb7f0" d="M62 50H68V56H62z"/><path fill="#f78f8f" d="M62 40H68V46H62z"/><path fill="#66798f" d="M40 67.143A2.714 2.714 0 1 0 40 72.571A2.714 2.714 0 1 0 40 67.143Z"/><path fill="#fff" d="M12.5 2.5H37.5V33.5H12.5z"/><path fill="#788b9c" d="M37,3v30H13V3H37 M38,2H12v32h26V2L38,2z"/><path fill="#d6e3ed" d="M13 28H37V32H13z"/><path fill="#66798f" d="M37,28v4H13v-4h-2c-1.657,0-3,1.343-3,3v0c0,1.657,1.343,3,3,3h28c1.657,0,3-1.343,3-3v0	c0-1.657-1.343-3-3-3H37z"/><path fill="#5e9c76" d="M70 14H72V16H70zM66 14H68V16H66zM62 14H64V16H62z"/></svg>