<svg id="Layer_1" data-name="Layer 1" xmlns="http://www.w3.org/2000/svg" width="23.13mm" height="26.51mm" viewBox="0 0 65.55 75.14"><defs><style>.cls-1{fill:#7496c4;}.cls-2,.cls-4{fill:#ce4646;}.cls-2,.cls-3{stroke:#7496c4;}.cls-2,.cls-3,.cls-4{stroke-miterlimit:20;stroke-width:2px;}.cls-3{fill:none;}.cls-4{stroke:#ef2e38;}.cls-5{fill:#8bb7f0;}.cls-6{fill:#4e7ab5;}.cls-7{fill:#deb974;}.cls-8{fill:#967a44;}.cls-9{fill:#f5ce85;}.cls-10{fill:#a6714e;}.cls-11{fill:#7a4f34;}</style></defs><path class="cls-1" d="M67.4,5.36V60.53L54.58,73.36H15.4v-68h52m2-2h-56v72h42l14-14v-58Z" transform="translate(-13.4 -3.36)"/><path class="cls-1" d="M56.05,73.35l11.32-11-.14,11.17-11.18-.14m-2.85,2,16,.2.2-16-2,0L53.23,73.32l0,2Z" transform="translate(-13.4 -3.36)"/><path class="cls-2" d="M35.4,22.36h24m-34,0h6m4,10h24m-34,0h6m4,10h24m-34,0h6" transform="translate(-13.4 -3.36)"/><path class="cls-3" d="M35.4,52.36h24" transform="translate(-13.4 -3.36)"/><path class="cls-3" d="M25.4,52.36h6" transform="translate(-13.4 -3.36)"/><rect class="cls-4" x="13" y="19" width="4" height="0.01"/><rect class="cls-4" x="13" y="28.99" width="4" height="0.01"/><rect class="cls-4" x="13" y="38.99" width="4" height="0.01"/><rect class="cls-4" x="13" y="48.98" width="4" height="0.01"/><path class="cls-5" d="M67,66.5H59a12,12,0,0,0-12,12H79A12,12,0,0,0,67,66.5Z" transform="translate(-13.4 -3.36)"/><path class="cls-6" d="M67,67A11.52,11.52,0,0,1,78.45,78h-31A11.51,11.51,0,0,1,59,67h8m0-.5H59a12,12,0,0,0-12,12H79a12,12,0,0,0-12-12Z" transform="translate(-13.4 -3.36)"/><path class="cls-7" d="M58,67.56V61.5H68v6.06a5.08,5.08,0,0,1-5,2.94A5.07,5.07,0,0,1,58,67.56Z" transform="translate(-13.4 -3.36)"/><path class="cls-8" d="M67.46,62v5.46A4.62,4.62,0,0,1,63,70a4.62,4.62,0,0,1-4.5-2.54V62h9m.5-.5H58v6.06a5.07,5.07,0,0,0,5,2.94,5.08,5.08,0,0,0,5-2.94V61.5Z" transform="translate(-13.4 -3.36)"/><path class="cls-7" d="M70.1,59a2.61,2.61,0,1,1,0-5.21c1.85,0,2.61.48,2.61,1.65C72.71,56.81,71.54,59,70.1,59ZM55.81,59c-1.43,0-2.6-2.15-2.6-3.56,0-1.18.75-1.65,2.6-1.65a2.61,2.61,0,1,1,0,5.21Z" transform="translate(-13.4 -3.36)"/><path class="cls-8" d="M70.1,54c2,0,2.36.53,2.36,1.4,0,1.41-1.17,3.31-2.36,3.31a2.36,2.36,0,1,1,0-4.71M55.81,54a2.36,2.36,0,1,1,0,4.71c-1.19,0-2.35-1.9-2.35-3.31,0-.87.39-1.4,2.35-1.4m14.29-.5a2.86,2.86,0,1,0,0,5.71C71.68,59.21,73,57,73,55.4s-1.28-1.9-2.86-1.9Zm-14.29,0c-1.57,0-2.85.32-2.85,1.9s1.28,3.81,2.85,3.81a2.86,2.86,0,1,0,0-5.71Z" transform="translate(-13.4 -3.36)"/><path class="cls-9" d="M63,66.25a2.77,2.77,0,0,1-1.83-.7l0,0-.06,0A7.73,7.73,0,0,1,55.21,58V48.7a3.57,3.57,0,0,1,3.56-3.57h8.37a3.57,3.57,0,0,1,3.57,3.57V58a7.74,7.74,0,0,1-5.82,7.49l-.06,0,0,0A2.73,2.73,0,0,1,63,66.25Z" transform="translate(-13.4 -3.36)"/><path class="cls-8" d="M67.14,45.38a3.32,3.32,0,0,1,3.32,3.32V58a7.49,7.49,0,0,1-5.64,7.25l-.11,0-.09.08a2.47,2.47,0,0,1-3.32,0l-.09-.08-.12,0A7.48,7.48,0,0,1,55.46,58V48.7a3.32,3.32,0,0,1,3.31-3.32h8.37m0-.5H58.77A3.81,3.81,0,0,0,55,48.7V58a8,8,0,0,0,6,7.74,3,3,0,0,0,2,.76h0a3,3,0,0,0,2-.76A8,8,0,0,0,71,58V48.7a3.82,3.82,0,0,0-3.82-3.82Z" transform="translate(-13.4 -3.36)"/><path class="cls-10" d="M71,57.5s2-4.77,2-8c0-4.52-2.88-6-5-6,0,0-1.26-3-5.5-3-5.82,0-9.5,4-9.5,9.31a21.43,21.43,0,0,0,2,7.69h.5v-3c0-2.67,2-3.15,4.15-3.15A10.35,10.35,0,0,0,67,48.26s3.43,1.83,3.43,5.24v4Z" transform="translate(-13.4 -3.36)"/><path class="cls-11" d="M62.46,41c3.84,0,5,2.58,5,2.69l.12.31H68c2.07,0,4.5,1.44,4.5,5.51A22.45,22.45,0,0,1,71,56.1V53.5c0-3.66-3.54-5.6-3.69-5.69l-.36-.18-.26.3a9.91,9.91,0,0,1-7,2.92c-1.15,0-4.65,0-4.65,3.65v1.73a18.84,18.84,0,0,1-1.5-6.42c0-5.27,3.61-8.81,9-8.81m0-.5c-5.82,0-9.5,4-9.5,9.31a21.43,21.43,0,0,0,2,7.69h.5v-3c0-2.67,2-3.15,4.15-3.15A10.35,10.35,0,0,0,67,48.26s3.43,1.83,3.43,5.24v4H71s2-4.77,2-8c0-4.52-2.88-6-5-6,0,0-1.26-3-5.5-3Z" transform="translate(-13.4 -3.36)"/></svg>