<svg id="Layer_1" data-name="Layer 1" xmlns="http://www.w3.org/2000/svg" viewBox="0 0 67.02 74.39"><defs><style>.cls-1{fill:#7496c4;}.cls-2,.cls-4{fill:#ce4646;}.cls-2,.cls-3{stroke:#7496c4;}.cls-2,.cls-3,.cls-4{stroke-miterlimit:20;stroke-width:2px;}.cls-3{fill:none;}.cls-4{stroke:#ef2e38;}.cls-5{fill:#8bb7f0;}.cls-6{fill:#4e7ab5;}.cls-7{fill:#e8d47b;}.cls-8{fill:#ba9b48;}.cls-9{fill:#ffeea3;}.cls-10{fill:#ffc49c;}.cls-11{fill:#a16a4a;}.cls-12{fill:#bae0bd;}.cls-13{fill:#5e9c76;}.cls-14{fill:#c2e8ff;}.cls-15{fill:#b0c1d4;}.cls-16{fill:#66798f;}</style></defs><path class="cls-1" d="M62.45,5.61V60.79L49.62,73.62H10.44v-68h52m2-2h-56v72h42l14-14Z" transform="translate(-8.44 -3.61)"/><path class="cls-1" d="M51.1,73.61l11.32-11-.14,11.17L51.1,73.64m-2.86,2,16,.2.2-16h-2L48.27,73.58v2Z" transform="translate(-8.44 -3.61)"/><path class="cls-2" d="M30.44,22.61h24m-34,0h6m4,10h24m-34,0h6m4,10h24m-34,0h6" transform="translate(-8.44 -3.61)"/><path class="cls-3" d="M30.44,52.62h24" transform="translate(-8.44 -3.61)"/><path class="cls-3" d="M20.44,52.62h6" transform="translate(-8.44 -3.61)"/><rect class="cls-4" x="13" y="19" width="4" height="0.01"/><rect class="cls-4" x="13" y="28.99" width="4" height="0.01"/><rect class="cls-4" x="13" y="38.99" width="4" height="0.01"/><rect class="cls-4" x="13" y="48.98" width="4" height="0.01"/><path class="cls-5" d="M54,71.51a7.51,7.51,0,0,1,7.49-7h6a7.51,7.51,0,0,1,7.48,7Z" transform="translate(-8.44 -3.61)"/><path class="cls-6" d="M67.46,65a7,7,0,0,1,6.93,6H54.53a7,7,0,0,1,6.93-6h6m0-1h-6a8,8,0,0,0-8,8h22a8,8,0,0,0-8-8Z" transform="translate(-8.44 -3.61)"/><path class="cls-7" d="M61,64.83V61.51h7v3.32l-3.5,2.78Z" transform="translate(-8.44 -3.61)"/><path class="cls-8" d="M67.46,62v2.58l-3,2.38-3-2.38V62h6m1-1h-8v4.06l4,3.18,4-3.18V61Z" transform="translate(-8.44 -3.61)"/><path class="cls-7" d="M69.46,58.51a1.5,1.5,0,0,1,0-3c1.38,0,1.5.39,1.5.83C71,57.25,70.2,58.51,69.46,58.51Zm-10,0c-.75,0-1.5-1.26-1.5-2.17,0-.44.11-.83,1.5-.83a1.5,1.5,0,0,1,0,3Z" transform="translate(-8.44 -3.61)"/><path class="cls-8" d="M69.46,56c.82,0,1,.15,1,.15a.36.36,0,0,1,0,.18c0,.72-.63,1.67-1,1.67a1,1,0,0,1,0-2m-10,0a1,1,0,0,1,0,2c-.37,0-1-.95-1-1.67a.83.83,0,0,1,0-.18s.15-.15,1-.15m10-1a2,2,0,0,0,0,4c1.1,0,2-1.57,2-2.67s-.9-1.33-2-1.33Zm-10,0c-1.11,0-2,.23-2,1.33s.89,2.67,2,2.67a2,2,0,0,0,0-4Z" transform="translate(-8.44 -3.61)"/><path class="cls-9" d="M64.46,63.51a1.41,1.41,0,0,1-1-.5l-.1-.13-.16,0A5.48,5.48,0,0,1,59,57.51V52.25a2.36,2.36,0,0,1,2.36-2.36H67.6A2.36,2.36,0,0,1,70,52.25v5.26a5.48,5.48,0,0,1-4.2,5.33l-.16,0-.1.13A1.37,1.37,0,0,1,64.46,63.51Z" transform="translate(-8.44 -3.61)"/><path class="cls-8" d="M67.6,50.39a1.86,1.86,0,0,1,1.86,1.86v5.26a5,5,0,0,1-3.81,4.85l-.32.07-.21.26a.86.86,0,0,1-.66.32.84.84,0,0,1-.66-.32l-.21-.25-.32-.08a5,5,0,0,1-3.81-4.85V52.25a1.86,1.86,0,0,1,1.86-1.86H67.6m0-1H61.32a2.86,2.86,0,0,0-2.86,2.86v5.26A6,6,0,0,0,63,63.33a1.83,1.83,0,0,0,2.85,0,6,6,0,0,0,4.58-5.82V52.25a2.86,2.86,0,0,0-2.86-2.86Z" transform="translate(-8.44 -3.61)"/><path class="cls-10" d="M70,57.51V56a5.26,5.26,0,0,0-2.29-4.21l-.33-.21-.28.27a7.16,7.16,0,0,1-4.67,1.38A3.2,3.2,0,0,0,59,56.55v1h-.12A24.79,24.79,0,0,1,58,52c0-2.74,2.12-5.5,6.17-5.5A3,3,0,0,1,67,48.19l.13.31h.34A3.59,3.59,0,0,1,71,52.07a26.26,26.26,0,0,1-.89,5.44Z" transform="translate(-8.44 -3.61)"/><path class="cls-11" d="M64.13,47a2.46,2.46,0,0,1,2.39,1.35l.25.65h.69a3.1,3.1,0,0,1,3,3.06,14.53,14.53,0,0,1-.24,2.36,6.07,6.07,0,0,0-2.27-3L67.29,51l-.57.52a6.59,6.59,0,0,1-4.33,1.25,3.76,3.76,0,0,0-3.62,2.2A17.47,17.47,0,0,1,58.46,52c0-2.49,1.95-5,5.67-5m0-1c-4.22,0-6.67,2.87-6.67,6a26.69,26.69,0,0,0,1,6h1V56.55a2.7,2.7,0,0,1,2.93-2.81,7.44,7.44,0,0,0,5-1.52A4.82,4.82,0,0,1,69.46,56v2h1a28.79,28.79,0,0,0,1-5.94,4.09,4.09,0,0,0-4-4.06,3.48,3.48,0,0,0-3.33-2Z" transform="translate(-8.44 -3.61)"/><path class="cls-12" d="M36,71.51a7.51,7.51,0,0,1,7.49-7h6a7.51,7.51,0,0,1,7.48,7Z" transform="translate(-8.44 -3.61)"/><path class="cls-13" d="M49.46,65a7,7,0,0,1,6.93,6H36.53a7,7,0,0,1,6.93-6h6m0-1h-6a8,8,0,0,0-8,8h22a8,8,0,0,0-8-8Z" transform="translate(-8.44 -3.61)"/><path class="cls-7" d="M43,64.83V61.51h7v3.32l-3.5,2.78Z" transform="translate(-8.44 -3.61)"/><path class="cls-8" d="M49.46,62v2.58l-3,2.38-3-2.38V62h6m1-1h-8v4.06l4,3.18,4-3.18V61Z" transform="translate(-8.44 -3.61)"/><path class="cls-7" d="M51.46,58.51a1.5,1.5,0,0,1,0-3c1.38,0,1.5.39,1.5.83C53,57.25,52.2,58.51,51.46,58.51Zm-10,0c-.75,0-1.5-1.26-1.5-2.17,0-.44.11-.83,1.5-.83a1.5,1.5,0,0,1,0,3Z" transform="translate(-8.44 -3.61)"/><path class="cls-8" d="M51.46,56c.82,0,1,.15,1,.15a.36.36,0,0,1,0,.18c0,.72-.63,1.67-1,1.67a1,1,0,0,1,0-2m-10,0a1,1,0,0,1,0,2c-.37,0-1-.95-1-1.67a.83.83,0,0,1,0-.18s.15-.15,1-.15m10-1a2,2,0,0,0,0,4c1.1,0,2-1.57,2-2.67s-.9-1.33-2-1.33Zm-10,0c-1.11,0-2,.23-2,1.33s.89,2.67,2,2.67a2,2,0,0,0,0-4Z" transform="translate(-8.44 -3.61)"/><path class="cls-9" d="M46.46,63.51a1.41,1.41,0,0,1-1.05-.5l-.1-.13-.16,0A5.48,5.48,0,0,1,41,57.51V52.25a2.36,2.36,0,0,1,2.36-2.36H49.6A2.36,2.36,0,0,1,52,52.25v5.26a5.48,5.48,0,0,1-4.2,5.33l-.16,0-.1.13A1.37,1.37,0,0,1,46.46,63.51Z" transform="translate(-8.44 -3.61)"/><path class="cls-8" d="M49.6,50.39a1.86,1.86,0,0,1,1.86,1.86v5.26a5,5,0,0,1-3.81,4.85l-.32.07-.21.26a.86.86,0,0,1-.66.32.84.84,0,0,1-.66-.32l-.21-.25-.32-.08a5,5,0,0,1-3.81-4.85V52.25a1.86,1.86,0,0,1,1.86-1.86H49.6m0-1H43.32a2.86,2.86,0,0,0-2.86,2.86v5.26A6,6,0,0,0,45,63.33a1.83,1.83,0,0,0,2.85,0,6,6,0,0,0,4.58-5.82V52.25a2.86,2.86,0,0,0-2.86-2.86Z" transform="translate(-8.44 -3.61)"/><path class="cls-10" d="M52,57.51V56a5.26,5.26,0,0,0-2.29-4.21l-.33-.21-.28.27a7.16,7.16,0,0,1-4.67,1.38A3.2,3.2,0,0,0,41,56.55v1h-.12A24.79,24.79,0,0,1,40,52c0-2.74,2.12-5.5,6.17-5.5A3,3,0,0,1,49,48.19l.13.31h.34A3.59,3.59,0,0,1,53,52.07a26.26,26.26,0,0,1-.89,5.44Z" transform="translate(-8.44 -3.61)"/><path class="cls-11" d="M46.13,47a2.46,2.46,0,0,1,2.39,1.35l.25.65h.69a3.1,3.1,0,0,1,3,3.06,14.53,14.53,0,0,1-.24,2.36,6.07,6.07,0,0,0-2.27-3L49.29,51l-.57.52a6.59,6.59,0,0,1-4.33,1.25,3.76,3.76,0,0,0-3.62,2.2A17.47,17.47,0,0,1,40.46,52c0-2.49,1.95-5,5.67-5m0-1c-4.22,0-6.67,2.87-6.67,6a26.69,26.69,0,0,0,1,6h1V56.55a2.7,2.7,0,0,1,2.93-2.81,7.44,7.44,0,0,0,5-1.52A4.82,4.82,0,0,1,51.46,56v2h1a28.79,28.79,0,0,0,1-5.94,4.09,4.09,0,0,0-4-4.06,3.48,3.48,0,0,0-3.33-2Z" transform="translate(-8.44 -3.61)"/><path class="cls-14" d="M45,77.51a7.51,7.51,0,0,1,7.49-7h6a7.51,7.51,0,0,1,7.48,7Z" transform="translate(-8.44 -3.61)"/><path class="cls-1" d="M58.46,71a7,7,0,0,1,6.93,6H45.53a7,7,0,0,1,6.93-6h6m0-1h-6a8,8,0,0,0-8,8h22a8,8,0,0,0-8-8Z" transform="translate(-8.44 -3.61)"/><path class="cls-7" d="M52,70.83V67.51h7v3.32l-3.5,2.78Z" transform="translate(-8.44 -3.61)"/><path class="cls-8" d="M58.46,68v2.58l-3,2.38-3-2.38V68h6m1-1h-8v4.06l4,3.18,4-3.18V67Z" transform="translate(-8.44 -3.61)"/><path class="cls-6" d="M57.46,71.39l-2,.62-2-.62,1.34,2.37L53.43,78h4l-1.37-4.25Z" transform="translate(-8.44 -3.61)"/><path class="cls-7" d="M60.46,64.51a1.5,1.5,0,1,1,0-3c1.38,0,1.5.39,1.5.83C62,63.25,61.2,64.51,60.46,64.51Zm-10,0c-.75,0-1.5-1.26-1.5-2.17,0-.44.11-.83,1.5-.83a1.5,1.5,0,1,1,0,3Z" transform="translate(-8.44 -3.61)"/><path class="cls-8" d="M60.46,62c.82,0,1,.15,1,.15a.36.36,0,0,1,0,.18c0,.72-.63,1.67-1,1.67a1,1,0,1,1,0-2m-10,0a1,1,0,0,1,0,2c-.37,0-1-1-1-1.67a.83.83,0,0,1,0-.18s.15-.15,1-.15m10-1a2,2,0,1,0,0,4c1.1,0,2-1.57,2-2.67s-.9-1.33-2-1.33Zm-10,0c-1.11,0-2,.23-2,1.33s.89,2.67,2,2.67a2,2,0,0,0,0-4Z" transform="translate(-8.44 -3.61)"/><path class="cls-9" d="M55.46,69.51a1.41,1.41,0,0,1-1.05-.5l-.1-.13-.16,0A5.48,5.48,0,0,1,50,63.51V58.25a2.36,2.36,0,0,1,2.36-2.36H58.6A2.36,2.36,0,0,1,61,58.25v5.26a5.48,5.48,0,0,1-4.2,5.33l-.16,0-.1.13A1.37,1.37,0,0,1,55.46,69.51Z" transform="translate(-8.44 -3.61)"/><path class="cls-8" d="M58.6,56.39a1.86,1.86,0,0,1,1.86,1.86v5.26a5,5,0,0,1-3.81,4.85l-.32.07-.21.26a.86.86,0,0,1-.66.32.84.84,0,0,1-.66-.32l-.21-.25-.32-.08a5,5,0,0,1-3.81-4.85V58.25a1.86,1.86,0,0,1,1.86-1.86H58.6m0-1H52.32a2.86,2.86,0,0,0-2.86,2.86v5.26A6,6,0,0,0,54,69.33a1.83,1.83,0,0,0,2.85,0,6,6,0,0,0,4.58-5.82V58.25a2.86,2.86,0,0,0-2.86-2.86Z" transform="translate(-8.44 -3.61)"/><path class="cls-15" d="M61,63.51V62a5.26,5.26,0,0,0-2.29-4.21l-.33-.21-.28.27a7.16,7.16,0,0,1-4.67,1.38A3.2,3.2,0,0,0,50,62.55v1h-.12A24.79,24.79,0,0,1,49,58c0-2.74,2.12-5.5,6.17-5.5A3,3,0,0,1,58,54.19l.13.31h.34A3.59,3.59,0,0,1,62,58.07a26.26,26.26,0,0,1-.89,5.44Z" transform="translate(-8.44 -3.61)"/><path class="cls-16" d="M55.13,53a2.46,2.46,0,0,1,2.39,1.35l.25.65h.69a3.1,3.1,0,0,1,3,3.06,14.53,14.53,0,0,1-.24,2.36,6.07,6.07,0,0,0-2.27-3L58.29,57l-.57.52a6.59,6.59,0,0,1-4.33,1.25,3.76,3.76,0,0,0-3.62,2.2A17.47,17.47,0,0,1,49.46,58c0-2.49,1.95-5,5.67-5m0-1c-4.22,0-6.67,2.87-6.67,6a26.69,26.69,0,0,0,1,6h1V62.55a2.7,2.7,0,0,1,2.93-2.81,7.44,7.44,0,0,0,5-1.52A4.82,4.82,0,0,1,60.46,62v2h1a28.79,28.79,0,0,0,1-5.94,4.09,4.09,0,0,0-4-4.06,3.48,3.48,0,0,0-3.33-2Z" transform="translate(-8.44 -3.61)"/></svg>