<svg id="Layer_1" data-name="Layer 1" xmlns="http://www.w3.org/2000/svg" width="25.4mm" height="27.52mm" viewBox="0 0 72 78"><defs><style>.cls-1{fill:#fff;}.cls-2{fill:#788b9c;}.cls-3{fill:#e8d47b;}.cls-4{fill:#ba9b48;}.cls-5{fill:#4e7ab5;}.cls-6{fill:#ffeea3;}.cls-7{fill:#ffc49c;}.cls-8{fill:#a16a4a;}.cls-9{fill:#bae0bd;}.cls-10{fill:#5e9c76;}</style></defs><path class="cls-1" d="M9,77A23,23,0,0,1,32,55H48A23,23,0,0,1,71,77Z" transform="translate(-8 -2)"/><path class="cls-2" d="M48,56A22,22,0,0,1,69.91,76H10.09A22,22,0,0,1,32,56H48m0-2H32A24,24,0,0,0,8,78H72A24,24,0,0,0,48,54Z" transform="translate(-8 -2)"/><path class="cls-3" d="M31,55.64V45H49V55.64l-9,7.09Z" transform="translate(-8 -2)"/><path class="cls-4" d="M48,46v9.15l-8,6.31-8-6.31V46H48m2-2H30V56.12L40,64l10-7.88V44Z" transform="translate(-8 -2)"/><path class="cls-5" d="M45.2,59.24,40,60.61l-5.2-1.36L38,66,34,78H46L42,66Z" transform="translate(-8 -2)"/><path class="cls-3" d="M54.29,38.43a4.72,4.72,0,1,1,0-9.43C58.21,29,59,30.08,59,31.81,59,34.64,56.67,38.43,54.29,38.43Zm-28.58,0c-2.38,0-4.71-3.79-4.71-6.62,0-1.74.79-2.81,4.71-2.81a4.72,4.72,0,1,1,0,9.43Z" transform="translate(-8 -2)"/><path class="cls-4" d="M54.29,30C58,30,58,31,58,31.81c0,2.47-2.08,5.62-3.71,5.62a3.72,3.72,0,1,1,0-7.43M25.71,30a3.72,3.72,0,1,1,0,7.43c-1.63,0-3.71-3.15-3.71-5.62C22,31,22,30,25.71,30m28.58-2a5.72,5.72,0,1,0,0,11.43C57.44,39.43,60,35,60,31.81S57.44,28,54.29,28ZM25.71,28c-3.15,0-5.71.65-5.71,3.81s2.56,7.62,5.71,7.62a5.72,5.72,0,1,0,0-11.43Z" transform="translate(-8 -2)"/><path class="cls-6" d="M40,53a4.93,4.93,0,0,1-3.28-1.26l-.18-.16-.24-.06A15,15,0,0,1,25,37V18.4a6.63,6.63,0,0,1,6.62-6.62H48.37A6.63,6.63,0,0,1,55,18.4V37A15,15,0,0,1,43.69,51.52l-.23.06-.18.16A4.93,4.93,0,0,1,40,53Z" transform="translate(-8 -2)"/><path class="cls-4" d="M48.37,12.78A5.63,5.63,0,0,1,54,18.4V37A14,14,0,0,1,43.45,50.55l-.47.12-.36.32a3.9,3.9,0,0,1-5.24,0L37,50.67l-.47-.12A14,14,0,0,1,26,37V18.4a5.63,5.63,0,0,1,5.63-5.62H48.37m0-2H31.62A7.62,7.62,0,0,0,24,18.4V37A16,16,0,0,0,36.06,52.49a5.9,5.9,0,0,0,7.88,0A16,16,0,0,0,56,37V18.4a7.62,7.62,0,0,0-7.63-7.62Z" transform="translate(-8 -2)"/><path class="cls-7" d="M55,35V28c0-7.27-6.07-11.16-6.33-11.33l-.79-.5-.55.77c-.17.24-4.24,5.77-13,5.77-2.3,0-9.3,0-9.3,7.29v5h-.36C23.77,33,21,26.34,21,20.63,21,10.08,28.23,3,39,3c7.68,0,10,5.17,10.08,5.39l.26.61H50c3.34,0,9,2.32,9,11,0,5.24-2.81,12.79-3.68,15Z" transform="translate(-8 -2)"/><path class="cls-8" d="M39,4c7,0,9.08,4.59,9.15,4.77L48.67,10H50c3.69,0,8,2.63,8,10a36.64,36.64,0,0,1-2,10.09V28c0-7.82-6.52-12-6.79-12.17l-1.61-1-1.09,1.54c0,.06-3.88,5.35-12.21,5.35C27.47,21.71,24,24.5,24,30v.63a32.68,32.68,0,0,1-2-10C22,10.68,28.83,4,39,4m0-2C27.36,2,20,10,20,20.62,20,27.68,24,36,24,36h2V30c0-5.34,4.05-6.29,8.3-6.29,9.46,0,13.84-6.19,13.84-6.19S54,21.2,54,28v8h2s4-9.54,4-16c0-9-5.75-12-10-12,0,0-2.51-6-11-6Z" transform="translate(-8 -2)"/><path class="cls-9" d="M62,79.5A17.5,17.5,0,1,1,79.5,62,17.52,17.52,0,0,1,62,79.5Z" transform="translate(-8 -2)"/><path class="cls-10" d="M62,45A17,17,0,1,1,45,62,17,17,0,0,1,62,45m0-1A18,18,0,1,0,80,62,18,18,0,0,0,62,44Z" transform="translate(-8 -2)"/><path class="cls-1" d="M51,61H73v2H51Z" transform="translate(-8 -2)"/><path class="cls-1" d="M63,51V73H61V51Z" transform="translate(-8 -2)"/></svg>
