<svg id="Layer_1" data-name="Layer 1" xmlns="http://www.w3.org/2000/svg" viewBox="0 0 38.8 38.82"><defs><style>.cls-1{fill:#f78f8f;}.cls-2{fill:#c74343;}.cls-3{fill:#bae0bd;}.cls-4{fill:#5e9c76;}.cls-5{fill:#fff;}.cls-6{fill:#ffeea3;}.cls-7{fill:#ba9b48;}.cls-8{fill:#f5ce85;}.cls-9{fill:#967a44;}</style></defs><polygon class="cls-1" points="17.5 12.5 17.5 6.5 13.21 6.5 19 0.71 24.79 6.5 20.5 6.5 20.5 12.5 17.5 12.5"/><path class="cls-2" d="M20,2.68l4.59,4.58H21v6H19v-6H15.41L20,2.68m0-1.42-7,7h5v6h4v-6h5l-7-7Z" transform="translate(-1 -1.26)"/><rect class="cls-3" x="2.5" y="33.5" width="33" height="3"/><path class="cls-4" d="M36,35.26v2H4v-2H36m1-1H3v4H37v-4Z" transform="translate(-1 -1.26)"/><rect class="cls-3" x="1.5" y="31.5" width="35" height="3"/><path class="cls-4" d="M37,33.26v2H3v-2H37m1-1H2v4H38v-4Z" transform="translate(-1 -1.26)"/><rect class="cls-3" x="0.5" y="11.5" width="37" height="21"/><path class="cls-4" d="M38,13.26v20H2v-20H38m1-1H1v22H39v-22Z" transform="translate(-1 -1.26)"/><circle class="cls-5" cx="19" cy="22" r="7.5"/><path class="cls-4" d="M20,16.26a7,7,0,1,1-7,7,7,7,0,0,1,7-7m0-1a8,8,0,1,0,8,8,8,8,0,0,0-8-8Z" transform="translate(-1 -1.26)"/><circle class="cls-5" cx="32" cy="22" r="2.5"/><path class="cls-4" d="M33,21.26a2,2,0,1,1-2,2,2,2,0,0,1,2-2m0-1a3,3,0,1,0,3,3,3,3,0,0,0-3-3Z" transform="translate(-1 -1.26)"/><circle class="cls-5" cx="6" cy="22" r="2.5"/><path class="cls-4" d="M7,21.26a2,2,0,1,1-2,2,2,2,0,0,1,2-2m0-1a3,3,0,1,0,3,3,3,3,0,0,0-3-3Z" transform="translate(-1 -1.26)"/><path class="cls-6" d="M33.4,39.86c-.68-.29-6.15-3-6.2-12.83l6.2-1.94L39.6,27C39.55,36.87,34.08,39.57,33.4,39.86Z" transform="translate(-1 -1.26)"/><path class="cls-7" d="M33.4,25.3l6,1.87c-.1,9.28-5.1,12-6,12.48-.91-.42-5.9-3.15-6-12.48l6-1.87m0-.42-6.4,2c0,10.86,6.4,13.2,6.4,13.2s6.4-2.37,6.4-13.2l-6.4-2Z" transform="translate(-1 -1.26)"/><path class="cls-8" d="M33.2,28.28h.4v6h-.4Z" transform="translate(-1 -1.26)"/><path class="cls-9" d="M33.4,28.48v0m.4-.4H33v6.4h.8v-6.4Z" transform="translate(-1 -1.26)"/><path class="cls-8" d="M33.2,35.48h.4v.4h-.4Z" transform="translate(-1 -1.26)"/><path class="cls-9" d="M33.8,35.28H33v.8h.8Z" transform="translate(-1 -1.26)"/></svg>