<svg xmlns="http://www.w3.org/2000/svg" id="Layer_1" data-name="Layer 1" viewBox="0 0 78.21 76.32"><defs><style>.cls-1{fill:#f5ce85;}.cls-2{fill:#967a44;}.cls-3{fill:#66798f;}.cls-4{fill:#bae0bd;}.cls-5{fill:#5e9c76;}.cls-6{fill:#fff;}</style></defs><path class="cls-1" d="M5.1,14.7V74.9H74.9V14.7ZM48.4,25.2H31.6a2.1,2.1,0,0,1,0-4.2H48.4a2,2,0,0,1,2.1,2.1A2.05,2.05,0,0,1,48.4,25.2Z" transform="translate(-2 -4.1)"/><rect class="cls-1" x="1" y="1" width="74" height="8.6"/><path class="cls-2" d="M78,4.1H2V14.7H4.1V75.9H75.9V14.7H78Zm-1,9.6H3V5.1H77ZM5.1,74.9V14.7H74.9V74.9Z" transform="translate(-2 -4.1)"/><path class="cls-2" d="M48.4,21H31.6a2.1,2.1,0,0,0,0,4.2H48.4a2.05,2.05,0,0,0,2.1-2.1A2,2,0,0,0,48.4,21Z" transform="translate(-2 -4.1)"/><polygon class="cls-3" points="10.7 58.2 12.7 58.2 12.7 49.7 14.9 49.7 11.7 45.5 8.6 49.7 10.7 49.7 10.7 58.2"/><rect class="cls-3" x="8.6" y="60.3" width="16.9" height="2"/><polygon class="cls-3" points="21.3 58.2 23.3 58.2 23.3 49.7 25.4 49.7 22.3 45.5 19.1 49.7 21.3 49.7 21.3 58.2"/><path class="cls-4" d="M64.21,79.93A15.53,15.53,0,1,1,79.74,64.4,15.55,15.55,0,0,1,64.21,79.93Z" transform="translate(-2 -4.1)"/><path class="cls-5" d="M64.21,49.31A15.09,15.09,0,1,1,49.12,64.4,15.11,15.11,0,0,1,64.21,49.31m0-.89a16,16,0,1,0,16,16,16,16,0,0,0-16-16Z" transform="translate(-2 -4.1)"/><path class="cls-6" d="M54.45,63.51H74v1.78H54.45Z" transform="translate(-2 -4.1)"/><path class="cls-6" d="M65.1,54.64V74.16H63.32V54.64Z" transform="translate(-2 -4.1)"/></svg>