<svg id="Layer_1" data-name="Layer 1" xmlns="http://www.w3.org/2000/svg" viewBox="0 0 39 38.45"><defs><style>.cls-1{fill:#f5ce85;}.cls-2{fill:#967a44;}.cls-3{fill:#66798f;}.cls-4{fill:#ffeea3;}.cls-5{fill:#ba9b48;}</style></defs><path class="cls-1" d="M2.3,6.05H37.7V37.2H2.3Z" transform="translate(-1 -1.55)"/><path class="cls-2" d="M37.45,6.3V37H2.55V6.3h34.9m.5-.5H2.05V37.45H38V5.8Z" transform="translate(-1 -1.55)"/><path class="cls-1" d="M1.25,1.8h37.5V6.6H1.25Z" transform="translate(-1 -1.55)"/><path class="cls-2" d="M38.5,2.05v4.3H1.5V2.05h37m.5-.5H1v5.3H39V1.55ZM24.2,10H15.8a1,1,0,1,0,0,2.1h8.4a1,1,0,0,0,1.05-1A1,1,0,0,0,24.2,10Z" transform="translate(-1 -1.55)"/><path class="cls-3" d="M7.3,32.2h8.45v1H7.3Zm6.35-6.35h1v5.3h-1Zm-5.3,0h1v5.3h-1Z" transform="translate(-1 -1.55)"/><path class="cls-3" d="M8.85,24.8,7.3,26.9h3.15Zm5.3,0-1.6,2.1H15.7Z" transform="translate(-1 -1.55)"/><path class="cls-4" d="M32.26,39.74c-.82-.36-7.43-3.61-7.49-15.52l7.49-2.34,7.5,2.34C39.69,36.11,33.09,39.38,32.26,39.74Z" transform="translate(-1 -1.55)"/><path class="cls-5" d="M32.26,22.13l7.25,2.27C39.39,35.61,33.35,39,32.26,39.47,31.17,39,25.14,35.68,25,24.4l7.25-2.27m0-.51L24.53,24c0,13.13,7.73,16,7.73,16S40,37.13,40,24l-7.74-2.42Z" transform="translate(-1 -1.55)"/><path class="cls-1" d="M32,25.74h.48V33H32Z" transform="translate(-1 -1.55)"/><path class="cls-2" d="M32.26,26v0m.49-.49h-1v7.74h1V25.49Z" transform="translate(-1 -1.55)"/><path class="cls-1" d="M32,34.44h.48v.48H32Z" transform="translate(-1 -1.55)"/><path class="cls-2" d="M32.75,34.2h-1v1h1Z" transform="translate(-1 -1.55)"/></svg>